<svg width="64" height="64" viewBox="0 0 64 64" fill="none" xmlns="http://www.w3.org/2000/svg">
<rect width="64" height="64" rx="16" fill="#FF5038"/>
<path d="M26.4721 41.4171V21.5829H22.5076C21.8748 21.5829 21.4281 20.7843 21.1675 19.1871C21.0558 18.4071 21 17.6086 21 16.7914C21 15.9743 21.0558 15.1757 21.1675 14.3957C21.4281 12.7986 21.8748 12 22.5076 12H41.269C41.9019 12 42.3299 12.7986 42.5533 14.3957C42.7022 15.1757 42.7767 15.9743 42.7767 16.7914C42.7767 17.6086 42.7022 18.4071 42.5533 19.1871C42.3299 20.7843 41.9019 21.5829 41.269 21.5829H37.5279V41.4171H41.4365C42.0694 41.4171 42.5161 42.2157 42.7767 43.8129C42.9256 44.5929 43 45.3914 43 46.2086C43 47.0257 42.9256 47.8243 42.7767 48.6043C42.5161 50.2014 42.0694 51 41.4365 51H22.6193C21.9865 51 21.5584 50.2014 21.335 48.6043C21.1861 47.8243 21.1117 47.0257 21.1117 46.2086C21.1117 45.3914 21.1861 44.5929 21.335 43.8129C21.5584 42.2157 21.9865 41.4171 22.6193 41.4171H26.4721Z" fill="white"/>
</svg>
