<svg width="178" height="19" viewBox="0 0 178 19" fill="none" xmlns="http://www.w3.org/2000/svg">
<path d="M4.20739 0.545454V18H0.517045V0.545454H4.20739ZM10.8061 10.4318V18H7.17543V4.90909H10.6357V7.21875H10.7891C11.0788 6.45739 11.5646 5.85511 12.2464 5.41193C12.9283 4.96307 13.755 4.73864 14.7266 4.73864C15.6357 4.73864 16.4283 4.9375 17.1044 5.33523C17.7805 5.73295 18.3061 6.30114 18.6811 7.03977C19.0561 7.77273 19.2436 8.64773 19.2436 9.66477V18H15.6129V10.3125C15.6186 9.51136 15.4141 8.88636 14.9993 8.4375C14.5845 7.98295 14.0135 7.75568 13.2862 7.75568C12.7976 7.75568 12.3658 7.8608 11.9908 8.07102C11.6214 8.28125 11.3317 8.58807 11.1214 8.99148C10.9169 9.3892 10.8118 9.86932 10.8061 10.4318ZM29.0682 4.90909V7.63636H21.1847V4.90909H29.0682ZM22.9744 1.77273H26.6051V13.9773C26.6051 14.3125 26.6563 14.5739 26.7585 14.7614C26.8608 14.9432 27.0028 15.071 27.1847 15.1449C27.3722 15.2187 27.5881 15.2557 27.8324 15.2557C28.0028 15.2557 28.1733 15.2415 28.3438 15.2131C28.5142 15.179 28.6449 15.1534 28.7358 15.1364L29.3068 17.8381C29.125 17.8949 28.8693 17.9602 28.5398 18.0341C28.2102 18.1136 27.8097 18.1619 27.3381 18.179C26.4631 18.2131 25.696 18.0966 25.0369 17.8295C24.3835 17.5625 23.875 17.1477 23.5114 16.5852C23.1477 16.0227 22.9688 15.3125 22.9744 14.4545V1.77273ZM37.2585 18.2557C35.9119 18.2557 34.7528 17.983 33.7812 17.4375C32.8153 16.8864 32.071 16.108 31.5483 15.1023C31.0256 14.0909 30.7642 12.8949 30.7642 11.5142C30.7642 10.1676 31.0256 8.9858 31.5483 7.96875C32.071 6.9517 32.8068 6.15909 33.7557 5.59091C34.7102 5.02273 35.8295 4.73864 37.1136 4.73864C37.9773 4.73864 38.7813 4.87784 39.5256 5.15625C40.2756 5.42898 40.929 5.84091 41.4858 6.39205C42.0483 6.94318 42.4858 7.63636 42.7983 8.47159C43.1108 9.30114 43.267 10.2727 43.267 11.3864V12.3835H32.2131V10.1335H39.8494C39.8494 9.6108 39.7358 9.14773 39.5085 8.74432C39.2813 8.34091 38.9659 8.02557 38.5625 7.7983C38.1648 7.56534 37.7017 7.44886 37.1733 7.44886C36.6222 7.44886 36.1335 7.5767 35.7074 7.83239C35.2869 8.08239 34.9574 8.42045 34.7188 8.84659C34.4801 9.26705 34.358 9.7358 34.3523 10.2528V12.392C34.3523 13.0398 34.4716 13.5994 34.7102 14.071C34.9545 14.5426 35.2983 14.9062 35.7415 15.1619C36.1847 15.4176 36.7102 15.5455 37.3182 15.5455C37.7216 15.5455 38.0909 15.4886 38.4261 15.375C38.7614 15.2614 39.0483 15.0909 39.2869 14.8636C39.5256 14.6364 39.7074 14.358 39.8324 14.0284L43.1903 14.25C43.0199 15.0568 42.6705 15.7614 42.142 16.3636C41.6193 16.9602 40.9432 17.4261 40.1136 17.7614C39.2898 18.0909 38.3381 18.2557 37.2585 18.2557ZM45.6364 18V4.90909H49.1562V7.19318H49.2926C49.5313 6.38068 49.9318 5.76705 50.4943 5.35227C51.0568 4.93182 51.7045 4.72159 52.4375 4.72159C52.6193 4.72159 52.8153 4.73295 53.0256 4.75568C53.2358 4.77841 53.4205 4.80966 53.5795 4.84943V8.07102C53.4091 8.01989 53.1733 7.97443 52.8722 7.93466C52.571 7.89489 52.2955 7.875 52.0455 7.875C51.5114 7.875 51.0341 7.99148 50.6136 8.22443C50.1989 8.4517 49.8693 8.76989 49.625 9.17898C49.3864 9.58807 49.267 10.0597 49.267 10.5938V18H45.6364ZM59.0874 10.4318V18H55.4567V4.90909H58.9169V7.21875H59.0703C59.3601 6.45739 59.8459 5.85511 60.5277 5.41193C61.2095 4.96307 62.0362 4.73864 63.0078 4.73864C63.9169 4.73864 64.7095 4.9375 65.3857 5.33523C66.0618 5.73295 66.5874 6.30114 66.9624 7.03977C67.3374 7.77273 67.5249 8.64773 67.5249 9.66477V18H63.8942V10.3125C63.8999 9.51136 63.6953 8.88636 63.2805 8.4375C62.8658 7.98295 62.2947 7.75568 61.5675 7.75568C61.0788 7.75568 60.647 7.8608 60.272 8.07102C59.9027 8.28125 59.6129 8.58807 59.4027 8.99148C59.1982 9.3892 59.093 9.86932 59.0874 10.4318Z" fill="#FF5038"/>
<path d="M82.0284 6.1875C81.9091 5.77273 81.7415 5.40625 81.5256 5.08807C81.3097 4.7642 81.0455 4.49148 80.733 4.26989C80.4261 4.04261 80.0739 3.86932 79.6761 3.75C79.2841 3.63068 78.8494 3.57102 78.3722 3.57102C77.4801 3.57102 76.696 3.79261 76.0199 4.23579C75.3494 4.67898 74.8267 5.32386 74.4517 6.17045C74.0767 7.01136 73.8892 8.03977 73.8892 9.25568C73.8892 10.4716 74.0739 11.5057 74.4432 12.358C74.8125 13.2102 75.3352 13.8608 76.0114 14.3097C76.6875 14.7528 77.4858 14.9744 78.4062 14.9744C79.2415 14.9744 79.9545 14.8267 80.5455 14.5312C81.142 14.2301 81.5966 13.8068 81.9091 13.2614C82.2273 12.7159 82.3864 12.071 82.3864 11.3267L83.1364 11.4375H78.6364V8.65909H85.9403V10.858C85.9403 12.392 85.6165 13.7102 84.9688 14.8125C84.321 15.9091 83.429 16.7557 82.2926 17.3523C81.1562 17.9432 79.8551 18.2386 78.3892 18.2386C76.7528 18.2386 75.3153 17.8778 74.0767 17.1562C72.8381 16.429 71.8722 15.3977 71.179 14.0625C70.4915 12.7216 70.1477 11.1307 70.1477 9.28977C70.1477 7.875 70.3523 6.61364 70.7614 5.50568C71.1761 4.39205 71.7557 3.44886 72.5 2.67614C73.2443 1.90341 74.1108 1.31534 75.0994 0.911931C76.0881 0.508522 77.1591 0.306818 78.3125 0.306818C79.3011 0.306818 80.2216 0.451704 81.0739 0.741477C81.9261 1.02557 82.6818 1.42898 83.3409 1.9517C84.0057 2.47443 84.5483 3.09659 84.9688 3.81818C85.3892 4.53409 85.6591 5.32386 85.7784 6.1875H82.0284ZM94.5589 18.2557C93.2351 18.2557 92.0902 17.9744 91.1243 17.4119C90.1641 16.8437 89.4226 16.054 88.8999 15.0426C88.3771 14.0256 88.1158 12.8466 88.1158 11.5057C88.1158 10.1534 88.3771 8.97159 88.8999 7.96023C89.4226 6.94318 90.1641 6.15341 91.1243 5.59091C92.0902 5.02273 93.2351 4.73864 94.5589 4.73864C95.8828 4.73864 97.0249 5.02273 97.9851 5.59091C98.951 6.15341 99.6953 6.94318 100.218 7.96023C100.741 8.97159 101.002 10.1534 101.002 11.5057C101.002 12.8466 100.741 14.0256 100.218 15.0426C99.6953 16.054 98.951 16.8437 97.9851 17.4119C97.0249 17.9744 95.8828 18.2557 94.5589 18.2557ZM94.576 15.4432C95.1783 15.4432 95.6811 15.2727 96.0845 14.9318C96.4879 14.5852 96.7919 14.1136 96.9964 13.517C97.2067 12.9205 97.3118 12.2415 97.3118 11.4801C97.3118 10.7188 97.2067 10.0398 96.9964 9.44318C96.7919 8.84659 96.4879 8.375 96.0845 8.02841C95.6811 7.68182 95.1783 7.50852 94.576 7.50852C93.968 7.50852 93.4567 7.68182 93.0419 8.02841C92.6328 8.375 92.3232 8.84659 92.1129 9.44318C91.9084 10.0398 91.8061 10.7188 91.8061 11.4801C91.8061 12.2415 91.9084 12.9205 92.1129 13.517C92.3232 14.1136 92.6328 14.5852 93.0419 14.9318C93.4567 15.2727 93.968 15.4432 94.576 15.4432ZM106.141 18L101.147 0.545454H105.178L108.067 12.6733H108.212L111.4 0.545454H114.852L118.031 12.6989H118.184L121.073 0.545454H125.104L120.11 18H116.513L113.19 6.58807H113.053L109.738 18H106.141ZM130.642 10.4318V18H127.011V0.545454H130.54V7.21875H130.693C130.989 6.44602 131.466 5.84091 132.125 5.40341C132.784 4.96023 133.611 4.73864 134.605 4.73864C135.514 4.73864 136.307 4.9375 136.983 5.33523C137.665 5.72727 138.193 6.29261 138.568 7.03125C138.949 7.7642 139.136 8.64205 139.131 9.66477V18H135.5V10.3125C135.506 9.50568 135.301 8.87784 134.886 8.42898C134.477 7.98011 133.903 7.75568 133.165 7.75568C132.67 7.75568 132.233 7.8608 131.852 8.07102C131.477 8.28125 131.182 8.58807 130.966 8.99148C130.756 9.3892 130.648 9.86932 130.642 10.4318ZM147.954 18.2557C146.607 18.2557 145.448 17.983 144.477 17.4375C143.511 16.8864 142.766 16.108 142.244 15.1023C141.721 14.0909 141.46 12.8949 141.46 11.5142C141.46 10.1676 141.721 8.9858 142.244 7.96875C142.766 6.9517 143.502 6.15909 144.451 5.59091C145.406 5.02273 146.525 4.73864 147.809 4.73864C148.673 4.73864 149.477 4.87784 150.221 5.15625C150.971 5.42898 151.624 5.84091 152.181 6.39205C152.744 6.94318 153.181 7.63636 153.494 8.47159C153.806 9.30114 153.962 10.2727 153.962 11.3864V12.3835H142.908V10.1335H150.545C150.545 9.6108 150.431 9.14773 150.204 8.74432C149.977 8.34091 149.661 8.02557 149.258 7.7983C148.86 7.56534 148.397 7.44886 147.869 7.44886C147.317 7.44886 146.829 7.5767 146.403 7.83239C145.982 8.08239 145.653 8.42045 145.414 8.84659C145.175 9.26705 145.053 9.7358 145.048 10.2528V12.392C145.048 13.0398 145.167 13.5994 145.406 14.071C145.65 14.5426 145.994 14.9062 146.437 15.1619C146.88 15.4176 147.406 15.5455 148.013 15.5455C148.417 15.5455 148.786 15.4886 149.121 15.375C149.457 15.2614 149.744 15.0909 149.982 14.8636C150.221 14.6364 150.403 14.358 150.528 14.0284L153.886 14.25C153.715 15.0568 153.366 15.7614 152.837 16.3636C152.315 16.9602 151.638 17.4261 150.809 17.7614C149.985 18.0909 149.033 18.2557 147.954 18.2557ZM156.332 18V4.90909H159.852V7.19318H159.988C160.227 6.38068 160.627 5.76705 161.19 5.35227C161.752 4.93182 162.4 4.72159 163.133 4.72159C163.315 4.72159 163.511 4.73295 163.721 4.75568C163.931 4.77841 164.116 4.80966 164.275 4.84943V8.07102C164.104 8.01989 163.869 7.97443 163.567 7.93466C163.266 7.89489 162.991 7.875 162.741 7.875C162.207 7.875 161.729 7.99148 161.309 8.22443C160.894 8.4517 160.565 8.76989 160.32 9.17898C160.082 9.58807 159.962 10.0597 159.962 10.5938V18H156.332ZM171.509 18.2557C170.162 18.2557 169.003 17.983 168.031 17.4375C167.065 16.8864 166.321 16.108 165.798 15.1023C165.276 14.0909 165.014 12.8949 165.014 11.5142C165.014 10.1676 165.276 8.9858 165.798 7.96875C166.321 6.9517 167.057 6.15909 168.006 5.59091C168.96 5.02273 170.08 4.73864 171.364 4.73864C172.227 4.73864 173.031 4.87784 173.776 5.15625C174.526 5.42898 175.179 5.84091 175.736 6.39205C176.298 6.94318 176.736 7.63636 177.048 8.47159C177.361 9.30114 177.517 10.2727 177.517 11.3864V12.3835H166.463V10.1335H174.099C174.099 9.6108 173.986 9.14773 173.759 8.74432C173.531 8.34091 173.216 8.02557 172.812 7.7983C172.415 7.56534 171.952 7.44886 171.423 7.44886C170.872 7.44886 170.384 7.5767 169.957 7.83239C169.537 8.08239 169.207 8.42045 168.969 8.84659C168.73 9.26705 168.608 9.7358 168.602 10.2528V12.392C168.602 13.0398 168.722 13.5994 168.96 14.071C169.205 14.5426 169.548 14.9062 169.991 15.1619C170.435 15.4176 170.96 15.5455 171.568 15.5455C171.972 15.5455 172.341 15.4886 172.676 15.375C173.011 15.2614 173.298 15.0909 173.537 14.8636C173.776 14.6364 173.957 14.358 174.082 14.0284L177.44 14.25C177.27 15.0568 176.92 15.7614 176.392 16.3636C175.869 16.9602 175.193 17.4261 174.364 17.7614C173.54 18.0909 172.588 18.2557 171.509 18.2557Z" fill="black"/>
</svg>
